<?xml version="1.0" encoding="UTF-8" standalone="no"?>
<svg
   id="Layer_1"
   viewBox="0 0 289.32274 142.54287"
   version="1.1"
   sodipodi:docname="life_cycle_of_a_service.svg"
   inkscape:version="1.2.2 (732a01da63, 2022-12-09, custom)"
   width="289.32285"
   height="142.54292"
   xmlns:inkscape="http://www.inkscape.org/namespaces/inkscape"
   xmlns:sodipodi="http://sodipodi.sourceforge.net/DTD/sodipodi-0.dtd"
   xmlns="http://www.w3.org/2000/svg"
   xmlns:svg="http://www.w3.org/2000/svg">
  <sodipodi:namedview
     id="namedview1509"
     pagecolor="#ffffff"
     bordercolor="#000000"
     borderopacity="0.25"
     inkscape:showpageshadow="2"
     inkscape:pageopacity="0.0"
     inkscape:pagecheckerboard="0"
     inkscape:deskcolor="#d1d1d1"
     showgrid="false"
     inkscape:zoom="1"
     inkscape:cx="496"
     inkscape:cy="499.5"
     inkscape:window-width="2496"
     inkscape:window-height="1376"
     inkscape:window-x="0"
     inkscape:window-y="0"
     inkscape:window-maximized="1"
     inkscape:current-layer="Layer_1"
     showguides="true">
    <inkscape:grid
       type="xygrid"
       id="grid8463"
       originx="-79.156182"
       originy="13.120963" />
    <sodipodi:guide
       position="122.82859,-787.14913"
       orientation="1,0"
       id="guide3236"
       inkscape:locked="false" />
    <sodipodi:guide
       position="73.262845,142.40706"
       orientation="0,-1"
       id="guide931"
       inkscape:locked="false" />
    <sodipodi:guide
       position="78.257915,0.2359367"
       orientation="0,-1"
       id="guide933"
       inkscape:locked="false" />
  </sodipodi:namedview>
  <defs
     id="defs510">
    <style
       id="style448">.cls-1,.cls-2,.cls-3,.cls-4,.cls-5,.cls-6,.cls-7,.cls-8,.cls-9,.cls-10,.cls-11,.cls-12,.cls-13,.cls-14,.cls-15,.cls-16,.cls-17,.cls-18{stroke-miterlimit:10;}.cls-1,.cls-2,.cls-3,.cls-4,.cls-6,.cls-7,.cls-8,.cls-9,.cls-10,.cls-11,.cls-12,.cls-19,.cls-14,.cls-15,.cls-16,.cls-17,.cls-18{fill:none;}.cls-1,.cls-3{stroke:#777;}.cls-20{letter-spacing:-.03em;}.cls-21{letter-spacing:-.01em;}.cls-2,.cls-4,.cls-8,.cls-13,.cls-16{stroke:#7200d6;}.cls-2,.cls-6,.cls-7,.cls-8,.cls-10,.cls-11,.cls-12,.cls-14,.cls-15,.cls-17,.cls-18{stroke-linecap:round;}.cls-2,.cls-11{stroke-width:2px;}.cls-3,.cls-5,.cls-6,.cls-9,.cls-10,.cls-14,.cls-15,.cls-16{stroke-width:.75px;}.cls-22{clip-path:url(#clippath-11);}.cls-23{clip-path:url(#clippath-16);}.cls-24,.cls-5,.cls-13{fill:#fff;}.cls-25{letter-spacing:-.02em;}.cls-26,.cls-27{font-family:Manrope-Medium, Manrope;}.cls-26,.cls-28{font-size:20px;}.cls-4{stroke-width:.5px;}.cls-29{fill:#777;}.cls-5,.cls-7,.cls-9,.cls-10,.cls-12,.cls-14,.cls-15,.cls-18{stroke:#000;}.cls-6,.cls-11{stroke:#515151;}.cls-30{clip-path:url(#clippath-2);}.cls-31{clip-path:url(#clippath-13);}.cls-32{letter-spacing:-.03em;}.cls-33{letter-spacing:-.03em;}.cls-34{letter-spacing:-.01em;}.cls-7{stroke-dasharray:0 0 0 0 0 0 3.06 6.12 3.06 6.12 3.06 6.12;}.cls-35{clip-path:url(#clippath-15);}.cls-27{font-size:16px;}.cls-36{clip-path:url(#clippath-6);}.cls-8,.cls-12{stroke-dasharray:0 0 0 0 0 0 3 6 3 6 3 6;}.cls-37{letter-spacing:0em;}.cls-38{clip-path:url(#clippath-7);}.cls-39{clip-path:url(#clippath-1);}.cls-40{clip-path:url(#clippath-4);}.cls-41{letter-spacing:-.03em;}.cls-42{letter-spacing:-.02em;}.cls-10{stroke-dasharray:0 0 0 0 0 0 0 6 0 6 0 6;}.cls-43{letter-spacing:-.03em;}.cls-44{clip-path:url(#clippath-12);}.cls-45{letter-spacing:-.03em;}.cls-46{letter-spacing:-.02em;}.cls-47{letter-spacing:-.03em;}.cls-28{font-family:NeueMachina-Light, 'Neue Machina';}.cls-48{letter-spacing:-.04em;}.cls-49{clip-path:url(#clippath-9);}.cls-50{clip-path:url(#clippath);}.cls-51{clip-path:url(#clippath-19);}.cls-52{letter-spacing:-.02em;}.cls-53{clip-path:url(#clippath-3);}.cls-54{fill:#7200d6;}.cls-55{letter-spacing:-.03em;}.cls-14{stroke-dasharray:0 0 0 0 0 0 2.86 5.72 2.86 5.72 2.86 5.72;}.cls-56{clip-path:url(#clippath-8);}.cls-57{letter-spacing:-.03em;}.cls-58{letter-spacing:0em;}.cls-59{clip-path:url(#clippath-18);}.cls-60{clip-path:url(#clippath-14);}.cls-61{clip-path:url(#clippath-17);}.cls-62{fill:#03ff81;}.cls-63{clip-path:url(#clippath-5);}.cls-64{letter-spacing:-.01em;}.cls-65{letter-spacing:-.03em;}.cls-66{clip-path:url(#clippath-10);}.cls-67{letter-spacing:-.01em;}.cls-68{letter-spacing:0em;}.cls-69{letter-spacing:-.02em;}.cls-70{letter-spacing:-.03em;}.cls-71{letter-spacing:-.09em;}.cls-17{stroke:#fff;stroke-width:3px;}.cls-72{letter-spacing:-.03em;}.cls-18{stroke-dasharray:0 0 0 0 0 0 2.93 5.86 2.93 5.86 2.93 5.86;}.cls-73{fill:#fcfcfc;}</style>
  </defs>
  <g
     id="g516"
     transform="matrix(1.1561252,0,0,1.1561252,38.569726,-891.5499)"
     style="fill:none;stroke-width:0.864958">
    <ellipse
       class="cls-24"
       cx="154.11235"
       cy="803.82819"
       id="circle512"
       style="fill:none;stroke-width:0.864958"
       rx="32.1842"
       ry="32.184311"
       inkscape:export-filename="../fcba08b6/open-operator-logo.svg"
       inkscape:export-xdpi="96"
       inkscape:export-ydpi="96" />
    <ellipse
       class="cls-18"
       cx="154.11235"
       cy="803.82819"
       id="circle514"
       style="fill:none;stroke-width:0.980735;stroke-dasharray:0, 0, 0, 0, 0, 0, 2.9422, 5.88441, 2.9422, 5.88441, 2.9422, 5.88441;stroke-dashoffset:0"
       rx="32.1842"
       ry="32.184311" />
  </g>
  <g
     id="g530"
     transform="matrix(1.2673354,0,0,1.2673398,19.203346,-977.54045)"
     style="stroke-width:1.08852;stroke-dasharray:none">
    <polygon
       class="cls-5"
       points="162.59,786.22 162.59,784.72 149.15,784.72 149.15,786.22 147.75,786.22 147.75,787.72 146.53,787.72 146.53,813.05 147.75,813.05 147.75,814.47 149.15,814.47 149.15,815.97 162.59,815.97 162.59,814.47 163.99,814.47 163.99,813.05 165.2,813.05 165.2,787.72 163.99,787.72 163.99,786.22 "
       id="polygon518"
       style="stroke-width:1.08852;stroke-dasharray:none" />
    <rect
       x="150.3"
       y="790.23999"
       width="2.5"
       height="2.5"
       id="rect520"
       style="stroke-width:1.08852;stroke-dasharray:none" />
    <rect
       x="151.86"
       y="795.87"
       width="7.1999998"
       height="1.5"
       transform="rotate(180,155.46,796.62)"
       id="rect522"
       style="stroke-width:1.08852;stroke-dasharray:none" />
    <rect
       x="150.36"
       y="794.37"
       width="1.5"
       height="1.5"
       transform="rotate(180,151.11,795.12)"
       id="rect524"
       style="stroke-width:1.08852;stroke-dasharray:none" />
    <rect
       x="159.07001"
       y="794.37"
       width="1.5"
       height="1.5"
       transform="rotate(180,159.815,795.12)"
       id="rect526"
       style="stroke-width:1.08852;stroke-dasharray:none" />
    <rect
       x="158.10001"
       y="790.22998"
       width="2.5"
       height="2.5"
       id="rect528"
       style="stroke-width:1.08852;stroke-dasharray:none" />
  </g>
  <g
     id="g536"
     transform="matrix(1.1226373,0,0,1.1226373,41.758776,-861.60358)"
     style="stroke-width:0.890759">
    <circle
       class="cls-54"
       cx="110.75"
       cy="830.84998"
       r="11.5"
       id="circle532"
       style="stroke-width:0.890759" />
    <path
       class="cls-54"
       d="m 110.06,843.54 v 0 c 8.94,0 16.2,7.26 16.2,16.2 v 17.5 H 95.23 v -18.87 c 0,-8.18 6.64,-14.83 14.83,-14.83 z"
       id="path534"
       style="stroke-width:0.890759" />
  </g>
  <g
     id="g542"
     transform="matrix(1.1226373,0,0,1.1226373,41.758776,-842.51534)"
     style="stroke-width:0.890759">
    <circle
       class="cls-62"
       cx="155.87"
       cy="830.84998"
       r="11.5"
       id="circle538"
       style="stroke-width:0.890759" />
    <path
       class="cls-62"
       d="m 155.55,843.54 v 0 c 8.74,0 15.83,7.09 15.83,15.83 v 17.87 h -31.03 v -18.51 c 0,-8.39 6.81,-15.2 15.2,-15.2 z"
       id="path540"
       style="stroke-width:0.890759" />
  </g>
  <g
     id="g548"
     transform="matrix(1.1226373,0,0,1.1226373,50.728696,-879.07024)"
     style="stroke-width:0.890759">
    <circle
       cx="197.00999"
       cy="830.84998"
       r="11.5"
       id="circle544"
       style="stroke-width:0.890759" />
    <path
       d="m 196.94,843.54 v 0 c 8.6,0 15.59,6.98 15.59,15.59 v 18.12 H 181.5 v -18.26 c 0,-8.52 6.92,-15.44 15.44,-15.44 z"
       id="path546"
       style="stroke-width:0.890759" />
  </g>
  <g
     id="g946"
     transform="matrix(1.7189736,0,0,1.7189736,-1145.4051,-650.3787)"
     style="stroke-width:0.581743">
    <polygon
       points="479.66,329.23 486.9,321.99 486.9,256.82 479.66,249.58 479.66,169.92 486.9,169.92 501.38,198.89 501.38,350.96 486.9,379.92 479.66,379.92 "
       id="polygon21971"
       style="fill:#7200d6;fill-opacity:1;stroke-width:3.24093"
       transform="matrix(0.17949825,0,0,0.17949825,651.68733,370.35495)" />
    <polygon
       points="103.3,220.61 96.06,227.85 96.06,293.03 103.3,300.27 103.3,379.92 96.06,379.92 81.58,350.96 81.58,198.89 96.06,169.92 103.3,169.92 "
       id="polygon21973"
       style="fill:#7200d6;fill-opacity:1;stroke-width:3.24093"
       transform="matrix(0.17949825,0,0,0.17949825,651.68733,370.35495)" />
    <polygon
       points="242.16,79.36 232.18,77.06 176.95,111.66 174.65,121.64 107.15,163.92 103.3,157.79 120.16,130.14 249.04,49.41 281.27,46.31 285.12,52.45 "
       id="polygon21975"
       style="fill:#7200d6;fill-opacity:1;stroke-width:3.24093"
       transform="matrix(0.17949825,0,0,0.17949825,651.68733,370.35495)" />
    <polygon
       points="340.8,79.36 350.78,77.06 406.01,111.66 408.31,121.64 475.81,163.92 479.66,157.79 462.8,130.14 333.92,49.41 301.69,46.31 297.84,52.45 "
       id="polygon21977"
       style="fill:#7200d6;fill-opacity:1;stroke-width:3.24093"
       transform="matrix(0.17949825,0,0,0.17949825,651.68733,370.35495)" />
    <polygon
       points="340.8,473.49 350.78,475.78 406.01,441.19 408.31,431.2 475.81,388.92 479.66,395.06 462.8,422.71 333.92,503.43 301.69,506.53 297.84,500.4 "
       id="polygon21979"
       style="fill:#7200d6;fill-opacity:1;stroke-width:3.24093"
       transform="matrix(0.17949825,0,0,0.17949825,651.68733,370.35495)" />
    <polygon
       points="242.16,473.49 232.18,475.78 176.95,441.19 174.65,431.2 107.15,388.92 103.3,395.06 120.16,422.71 249.04,503.43 281.27,506.53 285.12,500.4 "
       id="polygon21981"
       style="fill:#7200d6;fill-opacity:1;stroke-width:3.24093"
       transform="matrix(0.17949825,0,0,0.17949825,651.68733,370.35495)" />
    <g
       id="g21991"
       style="fill:#7200d6;fill-opacity:1;stroke-width:3.24093"
       transform="matrix(0.17949825,0,0,0.17949825,651.68733,370.35495)">
      <polygon
         points="189.58,223.03 257.08,223.03 270.58,209.53 329.08,209.53 338.08,218.53 383.08,218.53 396.58,232.03 347.08,232.03 338.08,241.03 284.08,241.03 279.58,236.53 207.58,236.53 203.08,241.03 189.58,241.03 180.58,232.03 "
         id="polygon21983"
         style="fill:#7200d6;fill-opacity:1;stroke-width:3.24093" />
      <path
         d="m 188.47,270.28 h 55.78 c 0.21,0 0.42,-0.09 0.57,-0.24 l 10.39,-10.77 c 0.15,-0.15 0.35,-0.24 0.57,-0.24 h 79.67 c 0.21,0 0.41,0.09 0.56,0.24 l 13.65,14.15 c 0.15,0.15 0.35,0.24 0.57,0.24 h 45.57 c 0.43,0 0.78,0.35 0.78,0.78 v 13.07 c 0,0.43 -0.35,0.78 -0.78,0.78 h -55.34 c -0.21,0 -0.42,0.09 -0.57,0.24 l -3.88,4.02 c -0.15,0.15 -0.35,0.24 -0.57,0.24 h -60.27 c -0.13,0 -0.25,-0.03 -0.36,-0.09 l -8.34,-4.32 c -0.11,-0.06 -0.24,-0.09 -0.36,-0.09 h -77.64 c -0.21,0 -0.41,-0.09 -0.56,-0.24 l -7.95,-8.24 c -0.28,-0.29 -0.28,-0.76 0,-1.05 l 7.95,-8.23 c 0.15,-0.15 0.35,-0.24 0.57,-0.24 z"
         id="path21985"
         style="fill:#7200d6;fill-opacity:1;stroke-width:3.24093" />
      <polygon
         points="370.65,335.53 366.33,340.03 344.72,340.03 340.4,335.53 310.15,335.53 305.83,331.03 305.83,317.53 396.58,317.53 396.58,335.53 "
         id="polygon21987"
         style="fill:#7200d6;fill-opacity:1;stroke-width:3.24093" />
      <polygon
         points="205.14,313.03 201.05,316.78 180.58,316.78 180.58,335.53 278.83,335.53 278.83,320.53 270.65,316.78 237.89,316.78 233.8,313.03 "
         id="polygon21989"
         style="fill:#7200d6;fill-opacity:1;stroke-width:3.24093" />
    </g>
  </g>
</svg>
